<svg version="1.1" id="Layer_1" xmlns="http://www.w3.org/2000/svg" xmlns:xlink="http://www.w3.org/1999/xlink" x="0px" y="0px"
	 width="100%" viewBox="0 0 1378 1234" enable-background="new 0 0 1378 1234" xml:space="preserve">
<path fill="#1B1D2B" opacity="1.000000" stroke="none" 
	d="
M801.000000,1235.000000 
	C534.000000,1235.000000 267.500000,1235.000000 1.000000,1235.000000 
	C1.000000,823.666687 1.000000,412.333344 1.000000,1.000000 
	C460.333344,1.000000 919.666687,1.000000 1379.000000,1.000000 
	C1379.000000,412.333344 1379.000000,823.666687 1379.000000,1235.000000 
	C1186.500000,1235.000000 994.000000,1235.000000 801.000000,1235.000000 
M633.502991,935.513367 
	C632.665894,934.789978 631.911072,933.581177 630.978210,933.422913 
	C625.422729,932.481079 619.834290,931.183044 614.241943,931.107483 
	C592.745850,930.816956 571.243469,931.020874 549.745056,930.844177 
	C545.911804,930.812683 544.671570,932.428772 544.787048,935.860596 
	C544.826233,937.026001 544.807800,938.193481 544.814575,939.359985 
	C545.044006,978.856628 545.260010,1018.353271 545.525208,1057.849731 
	C545.549438,1061.461670 545.888000,1065.071655 546.867371,1069.212280 
	C558.577087,1069.119629 570.286804,1069.027100 582.872131,1069.038086 
	C583.242615,1067.583252 583.921753,1066.131226 583.934326,1064.673340 
	C584.026062,1054.056152 583.983704,1043.437866 583.983704,1032.459717 
	C591.280273,1032.459717 598.048645,1032.341553 604.804565,1032.578369 
	C605.905762,1032.617065 607.227112,1034.036743 607.980774,1035.137207 
	C615.275208,1045.787720 622.366333,1056.579346 629.801331,1067.129395 
	C630.964172,1068.779297 633.533813,1070.312378 635.501099,1070.374512 
	C645.981201,1070.705566 656.477234,1070.613647 666.966003,1070.502075 
	C668.660461,1070.484009 670.346130,1069.631714 672.450439,1069.050537 
	C662.698608,1055.053345 653.547241,1041.987671 644.494385,1028.854370 
	C643.012573,1026.704834 642.983887,1024.624756 645.828186,1023.164001 
	C656.079163,1017.899231 662.893372,1009.966370 666.578308,998.779236 
	C672.556091,980.631226 669.840393,964.181763 657.992371,949.539429 
	C654.005798,944.612610 649.274902,939.544189 641.377869,938.643616 
	C638.935425,937.753723 636.493042,936.863770 633.502991,935.513367 
M459.751434,300.352966 
	C452.336914,295.360840 446.665924,287.716370 437.971344,286.104523 
	C443.604584,291.363190 449.812561,297.158325 456.167694,303.618500 
	C459.230286,306.383667 462.407867,309.032654 465.337708,311.931976 
	C495.610229,341.889343 525.904114,371.825562 556.071716,401.888458 
	C599.820312,445.485077 643.481262,489.169586 687.154419,532.841797 
	C701.584473,547.271484 715.871399,561.845093 730.383911,576.190857 
	C733.029175,578.805664 733.123352,580.379822 730.369629,582.878662 
	C722.389709,590.119934 714.611023,597.583008 706.760681,604.966858 
	C702.403992,609.064636 698.061951,613.178040 693.078918,617.883484 
	C701.275635,618.988892 707.927490,620.055237 714.618042,620.747253 
	C723.851685,621.702271 733.121399,622.304199 742.362610,623.193359 
	C748.470337,623.781067 754.565186,624.531616 760.648010,625.342468 
	C774.074280,627.132385 787.483521,629.049927 800.910767,630.832031 
	C810.896606,632.157410 820.894470,633.398315 830.899719,634.567627 
	C833.059143,634.820068 835.273376,634.604492 837.638428,634.604492 
	C824.732849,587.554810 812.060974,541.357422 799.186523,494.421326 
	C797.999939,495.325134 796.833618,495.846497 796.208862,496.744659 
	C787.325378,509.515778 778.521118,522.341980 769.682129,535.144104 
	C767.993469,537.590027 766.170105,538.171326 763.534424,536.100708 
	C755.359558,529.678345 747.019958,523.466309 738.785095,517.119690 
	C713.323975,497.496674 687.810974,477.939941 662.450562,458.187439 
	C632.251343,434.666138 602.271729,410.862640 572.043884,387.378418 
	C543.952881,365.554291 515.662476,343.986816 487.455872,322.311646 
	C478.219788,315.214203 468.970978,308.133301 459.751434,300.352966 
M453.231415,498.746521 
	C453.073761,498.799286 452.858215,498.803192 452.766724,498.911713 
	C427.134705,529.318665 401.713318,559.906128 375.821198,590.089844 
	C356.362122,612.774231 347.049805,638.727783 348.415009,668.522705 
	C348.540924,671.270569 349.250977,674.017273 349.911591,676.710144 
	C352.047089,685.414795 353.250397,694.531494 356.697723,702.693298 
	C364.209442,720.477844 375.732269,735.541321 391.952118,746.429260 
	C408.368439,757.449036 426.373535,764.178101 446.342926,764.915466 
	C459.340210,765.395386 471.915955,763.714905 484.346619,759.429443 
	C502.005890,753.341553 517.037476,743.658203 529.303406,729.667236 
	C555.260193,700.059937 581.280457,670.506409 606.977783,640.675110 
	C613.451782,633.159607 619.746948,625.182678 624.395264,616.492920 
	C628.604431,608.624023 631.793030,599.678223 633.006836,590.872925 
	C634.515686,579.926697 634.506897,568.529663 633.293518,557.532532 
	C632.447571,549.865417 628.573792,542.506592 625.821655,535.095886 
	C625.228516,533.498657 623.870117,531.574097 622.439087,531.109375 
	C621.445251,530.786560 619.416626,532.442688 618.374268,533.662476 
	C607.181946,546.759094 596.024414,559.887512 585.057800,573.172607 
	C583.540466,575.010742 582.602356,577.674377 582.268799,580.076965 
	C581.287964,587.141663 578.562927,593.576782 574.222778,598.920776 
	C562.733215,613.067749 550.785217,626.844604 538.922546,640.685486 
	C525.804260,655.991455 512.717285,671.328308 499.351898,686.417175 
	C489.807312,697.192627 480.390930,708.139709 465.228363,711.654175 
	C452.912842,714.508728 440.827484,713.931580 429.610626,708.733765 
	C415.005615,701.966064 405.135590,690.590515 401.414124,674.420288 
	C398.439056,661.493408 398.418945,648.548157 405.531311,637.262451 
	C412.360779,626.425720 420.831635,616.572021 429.039307,606.665894 
	C446.545563,585.536987 464.228119,564.550781 482.087067,543.719238 
	C489.592987,534.963989 497.565674,526.588440 505.650513,518.358887 
	C509.441376,514.500122 514.519653,511.860748 518.104614,507.854523 
	C525.754028,499.306244 532.780640,490.202484 540.121216,481.375183 
	C543.834595,476.909760 547.675659,472.550537 551.654846,467.915131 
	C520.683350,456.032562 478.621216,465.989471 453.231415,498.746521 
M746.992798,386.509979 
	C737.950134,395.860229 728.942505,405.244781 719.833252,414.529785 
	C718.152405,416.243103 715.757080,417.292786 714.210449,419.094238 
	C706.013794,428.641571 698.113525,438.445831 689.814331,447.901093 
	C687.337952,450.722412 687.738098,452.542328 690.280457,454.521576 
	C696.578552,459.424469 702.832092,464.394623 709.315247,469.042542 
	C710.930237,470.200378 713.710205,471.225128 715.336426,470.627808 
	C724.288513,467.339569 733.358398,464.128296 741.806335,459.764801 
	C756.414490,452.219421 767.639038,440.569458 778.193054,428.104950 
	C799.259766,403.224762 820.283386,378.286041 842.099731,354.069519 
	C859.832947,334.385345 870.108398,311.862823 871.346436,285.559570 
	C871.967896,272.355835 869.793396,259.116180 865.384033,246.654282 
	C859.738342,230.698456 850.665588,216.665131 838.040466,205.139236 
	C817.150635,186.068192 792.574219,176.631012 764.282837,177.223160 
	C759.198914,177.329559 754.069763,178.047073 749.077148,179.055267 
	C742.532654,180.376846 735.922852,181.763916 729.657593,184.006851 
	C710.455933,190.880920 695.909180,204.025558 683.036133,219.403046 
	C665.369751,240.506485 647.445984,261.394257 629.741577,282.466034 
	C618.651001,295.666046 606.417786,307.899902 599.149475,324.097717 
	C591.842041,340.382721 588.819031,357.150116 590.316895,374.751190 
	C590.542786,377.405090 592.540588,380.526855 594.668396,382.278839 
	C600.040771,386.702301 605.954590,390.468262 611.846252,394.635468 
	C612.189758,394.425049 612.875061,394.196869 613.282288,393.727448 
	C621.536499,384.212952 629.806763,374.711182 637.930359,365.085876 
	C639.013000,363.803101 639.486816,361.912415 639.958191,360.223877 
	C642.072144,352.650726 644.005676,345.164001 649.354309,338.857239 
	C674.358459,309.374023 699.235657,279.781525 723.956604,250.060379 
	C733.295044,238.833130 744.865906,231.414673 759.197449,229.396790 
	C772.958984,227.459198 785.942505,230.051910 797.597412,238.624893 
	C811.240906,248.660706 818.835022,261.984863 819.658508,278.589661 
	C820.424561,294.034271 814.547546,307.397522 804.355591,319.157806 
	C785.198364,341.263000 766.423462,363.699554 746.992798,386.509979 
M799.996338,1061.383545 
	C799.996338,1039.868408 799.996338,1018.353333 799.996338,996.838257 
	C800.523499,996.685486 801.050659,996.532776 801.577820,996.380005 
	C803.743225,998.937622 805.945251,1001.465271 808.068237,1004.057556 
	C825.344727,1025.153320 842.552124,1046.306274 859.974426,1067.280884 
	C861.390564,1068.985718 864.215271,1070.327637 866.437317,1070.408203 
	C873.751526,1070.673340 881.092346,1070.355103 888.416626,1070.088013 
	C890.285095,1070.020020 892.130371,1069.313110 893.925842,1068.912964 
	C893.925842,1064.696045 893.925598,1061.034668 893.925842,1057.373413 
	C893.928711,1017.221863 893.870056,977.070007 894.020203,936.919006 
	C894.037048,932.414307 892.812256,930.794128 888.146118,930.991394 
	C879.664124,931.350037 871.145508,931.374390 862.664307,931.015930 
	C857.768494,930.809021 856.302490,932.499390 856.334778,937.286072 
	C856.475403,958.110046 856.308777,978.936279 856.227783,999.761597 
	C856.220825,1001.554749 856.022766,1003.347046 855.833862,1006.443665 
	C851.809509,1001.377136 848.905090,997.569153 845.843811,993.891785 
	C829.197632,973.895630 812.561768,953.890381 795.747559,934.036133 
	C794.418701,932.466919 791.791565,931.280518 789.712830,931.190979 
	C782.063538,930.861328 774.388977,931.172974 766.728149,931.025513 
	C763.453918,930.962463 762.257446,932.238037 762.339966,935.442749 
	C762.481506,940.936951 762.370728,946.437561 762.370605,951.935486 
	C762.369751,990.746155 762.370178,1029.556885 762.370178,1069.039917 
	C775.004517,1069.039917 787.437500,1069.039917 799.988098,1069.039917 
	C799.988098,1066.333496 799.988098,1064.339844 799.996338,1061.383545 
M405.065247,1069.518799 
	C410.665527,1069.518799 416.265778,1069.518799 422.320862,1069.518799 
	C422.320862,1050.853638 422.320862,1033.127930 422.320862,1015.245117 
	C440.546112,1015.245117 458.298309,1015.245117 476.309296,1015.245117 
	C476.427094,1017.148743 476.603668,1018.783020 476.617645,1020.418823 
	C476.744385,1035.244751 476.980133,1050.072266 476.851929,1064.896362 
	C476.820221,1068.562012 477.970428,1069.435791 481.401184,1069.363647 
	C491.060120,1069.160400 500.729584,1069.116577 510.386963,1069.345337 
	C514.355896,1069.439453 515.439026,1068.167603 515.423340,1064.197388 
	C515.298950,1032.709961 515.416626,1001.221741 515.452332,969.733765 
	C515.464783,958.738037 515.393494,947.741760 515.488953,936.746887 
	C515.524475,932.657776 514.229431,930.706665 509.679260,930.964905 
	C503.202515,931.332764 496.689392,931.056152 490.191833,931.062073 
	C476.487671,931.074585 476.493896,931.076538 476.503296,944.885559 
	C476.511871,957.502747 476.505066,970.119873 476.505066,982.851685 
	C458.182800,982.851685 440.321228,982.851685 421.803467,982.851685 
	C421.803467,965.387939 421.803467,948.345215 421.803467,931.448730 
	C408.899048,931.448730 396.658966,931.448730 384.221985,931.448730 
	C384.221985,977.462585 384.221985,1023.072815 384.221985,1069.535645 
	C390.914825,1069.535645 397.531586,1069.535645 405.065247,1069.518799 
M962.197754,982.257568 
	C962.197754,965.323730 962.197754,948.389893 962.197754,931.082214 
	C951.393127,931.082214 941.271973,931.080261 931.150818,931.082886 
	C924.640137,931.084595 924.494446,931.210754 924.497192,937.883484 
	C924.510681,970.864258 924.507690,1003.845093 924.581116,1036.825806 
	C924.602234,1046.319214 924.760498,1055.815796 925.118225,1065.301147 
	C925.168701,1066.639526 926.693237,1069.040405 927.577881,1069.060181 
	C939.005005,1069.316406 950.439819,1069.229614 962.084839,1069.229614 
	C962.084839,1058.447998 962.195496,1048.316406 962.016907,1038.190063 
	C961.963989,1035.187012 962.796570,1033.067261 965.045044,1031.058838 
	C968.060852,1028.364868 970.703857,1025.255127 973.522888,1022.339294 
	C977.938171,1017.772217 977.974060,1017.754883 981.855835,1022.891785 
	C992.685974,1037.223633 1003.566467,1051.518677 1014.240234,1065.966309 
	C1016.529785,1069.065308 1019.199097,1070.192627 1022.858276,1070.136963 
	C1033.848389,1069.969238 1044.840942,1069.970825 1055.831543,1069.822266 
	C1057.379150,1069.801270 1058.920532,1069.309570 1060.833984,1068.970459 
	C1060.275269,1067.758057 1060.105591,1067.111572 1059.732300,1066.619751 
	C1041.660889,1042.806885 1023.619385,1018.970825 1005.419861,995.256042 
	C1003.321045,992.521240 1003.352295,990.900635 1005.698364,988.368286 
	C1021.467712,971.347168 1037.090576,954.190063 1052.713257,937.033508 
	C1054.109131,935.500549 1055.165161,933.658264 1057.014526,931.070374 
	C1043.099731,931.070374 1030.779785,930.968506 1018.465881,931.193176 
	C1016.840942,931.222778 1014.892029,932.591492 1013.691589,933.892334 
	C998.121704,950.762756 982.680054,967.751587 967.129639,984.640137 
	C966.020203,985.844971 964.313965,986.500244 962.196838,987.849915 
	C962.196838,985.502686 962.196838,984.342834 962.197754,982.257568 
M255.589737,994.988220 
	C255.991760,995.670959 256.291351,996.445984 256.810944,997.022827 
	C266.808990,1008.124084 280.627106,1011.242249 294.204315,1014.835999 
	C302.227570,1016.959534 310.422638,1018.562866 318.248962,1021.249329 
	C322.404144,1022.675537 326.271790,1025.455322 326.482422,1031.045532 
	C326.659363,1035.742188 324.683411,1039.003418 320.613617,1040.603027 
	C317.310181,1041.901489 313.624176,1042.971924 310.134155,1042.898193 
	C302.412689,1042.734985 294.592651,1042.400391 287.030396,1040.978516 
	C280.289856,1039.711182 273.803284,1036.997925 267.280304,1034.707031 
	C263.766357,1033.472900 260.411285,1031.786499 257.291046,1030.436768 
	C254.199799,1038.712036 251.933228,1045.810303 248.884171,1052.554565 
	C247.061707,1056.585815 247.867218,1058.781982 251.477585,1060.768921 
	C263.677826,1067.483398 277.068542,1070.760986 290.586517,1072.403320 
	C307.570251,1074.466919 324.567810,1073.095459 340.171875,1064.995239 
	C360.832092,1054.270264 366.462799,1039.285278 363.545990,1018.646301 
	C362.862335,1013.808960 359.570251,1008.899963 356.348145,1004.944458 
	C346.820709,993.248169 332.355804,991.201843 319.012177,987.230896 
	C310.732147,984.766785 301.940002,983.768311 293.955811,980.637634 
	C286.065033,977.543518 282.384460,970.474976 290.468994,963.557617 
	C293.525787,960.942139 298.328979,959.587341 302.486145,959.176819 
	C318.328857,957.612000 333.170166,961.652527 347.648773,968.863831 
	C350.802551,960.791992 353.879669,952.839539 357.021790,944.912964 
	C358.249512,941.815735 357.777466,940.212158 354.286499,938.607422 
	C345.637970,934.631531 336.785187,931.935120 327.352325,930.527649 
	C310.122101,927.956604 293.409058,928.217651 276.822388,934.720093 
	C251.972061,944.462158 241.893265,971.321533 255.589737,994.988220 
M866.666016,497.499634 
	C866.670288,509.152130 866.747803,520.805359 866.632202,532.456665 
	C866.599365,535.768494 867.513977,537.237976 871.155090,537.222717 
	C901.618469,537.095276 932.082825,537.050659 962.545837,537.194641 
	C966.805908,537.214783 967.810242,535.754333 967.798523,531.729980 
	C967.710022,501.433167 967.730591,471.134827 967.999695,440.839447 
	C968.042908,435.966278 966.222351,435.059296 961.875427,435.084930 
	C932.244873,435.259949 902.612488,435.313232 872.982117,435.145203 
	C868.047607,435.117188 866.628052,437.138397 866.645264,441.566223 
	C866.716431,459.877075 866.671814,478.188354 866.666016,497.499634 
M579.980469,546.452637 
	C593.954773,529.780396 607.929077,513.108154 621.596558,496.802063 
	C610.130737,485.104736 598.967590,473.779480 587.894531,462.366821 
	C585.636658,460.039642 584.037292,460.696625 582.277161,462.835999 
	C575.593567,470.959625 568.922119,479.094238 562.153259,487.146606 
	C543.693848,509.106110 524.881653,530.778137 506.815369,553.055603 
	C496.233398,566.104126 502.288391,587.306091 519.770569,592.655701 
	C531.678833,596.299683 542.113220,592.301331 550.161072,582.369751 
	C559.805237,570.468262 569.729431,558.793579 579.980469,546.452637 
M698.185364,1069.279785 
	C709.283875,1069.279785 720.382385,1069.279785 731.662964,1069.279785 
	C731.662964,1056.829102 731.666321,1045.343872 731.662354,1033.858643 
	C731.650940,1001.213074 731.611633,968.567444 731.658142,935.921997 
	C731.663330,932.265991 730.163269,930.957458 726.554810,931.020935 
	C717.063660,931.187927 707.559326,931.344116 698.078003,931.006165 
	C693.490417,930.842651 692.372620,932.547607 692.402588,936.783508 
	C692.705566,979.586731 692.906006,1022.390930 692.989563,1065.195068 
	C692.996338,1068.658691 694.229553,1069.710327 698.185364,1069.279785 
M694.668091,410.209076 
	C698.687805,405.700562 702.664307,401.152588 706.736267,396.691772 
	C715.031311,387.604736 718.614258,377.575043 713.993225,365.389343 
	C707.280334,347.686920 683.788757,343.166473 671.918091,356.659485 
	C662.868286,366.946228 654.445496,377.783600 645.706787,388.345459 
	C640.346191,394.824402 634.915710,401.245605 629.427551,407.799133 
	C643.376709,418.482574 656.602722,428.612183 670.355713,439.145416 
	C678.410217,429.565674 686.302673,420.178741 694.668091,410.209076 
M571.607239,218.817749 
	C560.986755,211.312302 549.712830,211.904449 537.845154,215.434204 
	C528.620972,218.177719 520.031738,221.598907 515.659302,230.773453 
	C513.045105,236.258682 510.553619,242.126495 509.708313,248.064529 
	C507.824036,261.301147 508.578430,273.539124 519.991699,283.917664 
	C533.613831,296.304810 558.306885,296.751160 570.875122,289.998383 
	C581.010376,284.552765 587.422119,276.529846 589.354614,264.579498 
	C590.774109,255.801361 590.657104,247.530350 587.908752,239.178604 
	C585.089600,230.611511 579.613831,224.154114 571.607239,218.817749 
M795.779480,696.633179 
	C801.331055,700.702209 806.358704,706.105957 812.552979,708.537537 
	C822.660156,712.505005 837.671570,701.809937 838.687683,690.832825 
	C839.064758,686.759399 838.552673,682.531494 837.902222,678.460876 
	C837.477478,675.803223 836.779053,672.504517 834.961487,670.897522 
	C831.237793,667.605408 826.946777,664.652161 822.409241,662.644043 
	C811.723999,657.914978 801.681030,663.098267 796.710205,668.861084 
	C789.791199,676.882385 789.873840,688.012573 795.779480,696.633179 
M423.993500,420.985962 
	C416.758820,423.061920 415.283813,429.196259 416.361786,433.828674 
	C417.498505,438.713562 423.381317,442.725616 427.725372,441.881073 
	C434.360382,440.591156 438.328522,436.085388 437.906128,430.320953 
	C437.464539,424.294525 432.721954,420.880341 423.993500,420.985962 
M521.841675,422.299469 
	C518.739319,425.736908 520.143738,430.706390 524.481506,434.119568 
	C527.276672,436.318909 533.559021,434.953369 535.914246,431.951874 
	C538.944458,428.090210 538.490601,423.808411 534.677124,420.280396 
	C530.971924,416.852539 526.561829,417.294220 521.841675,422.299469 
M403.987518,241.342224 
	C405.874817,240.987427 408.287659,241.242615 409.546387,240.158203 
	C412.738068,237.408401 413.047668,233.275040 411.366821,229.819748 
	C409.765778,226.528549 406.283356,225.978531 402.572723,226.683716 
	C398.579498,227.442596 396.970612,230.700729 397.082062,233.549454 
	C397.213806,236.917450 398.323181,241.072174 403.987518,241.342224 
M657.779907,552.746765 
	C657.784241,553.243225 657.781494,553.739929 657.793945,554.236206 
	C657.913818,559.019897 660.859558,560.872803 665.143311,560.979187 
	C669.294861,561.082153 671.541321,558.671875 671.925720,554.698242 
	C672.293945,550.891113 670.963440,547.827576 666.873413,546.944702 
	C661.920227,545.875488 659.151611,547.562256 657.779907,552.746765 
M561.656311,338.670380 
	C562.078674,338.186584 562.511963,337.711792 562.921570,337.217468 
	C565.347046,334.290314 565.401306,329.375336 562.854919,327.220367 
	C559.904602,324.723572 556.851379,324.121429 553.589539,326.977325 
	C550.392090,329.776855 550.089172,333.025909 552.108887,336.371094 
	C554.120239,339.702484 557.583252,339.288361 561.656311,338.670380 
M745.520386,490.625854 
	C746.536743,490.166748 747.530396,489.646393 748.573425,489.259094 
	C753.327026,487.494049 752.353821,483.551178 751.715820,480.122711 
	C751.204590,477.375366 745.281189,475.119171 742.755432,477.210480 
	C740.818298,478.814392 739.943298,482.280365 739.573059,485.048859 
	C739.124817,488.400269 742.428589,489.280731 745.520386,490.625854 
M666.834900,671.277588 
	C666.093567,675.159058 667.103394,678.115662 671.315979,679.052795 
	C675.225464,679.922424 678.767761,678.577637 679.349060,674.645508 
	C679.689148,672.345337 678.055847,668.438171 676.150146,667.415222 
	C672.917786,665.680115 668.876770,665.922180 666.834900,671.277588 
M393.964294,310.801025 
	C394.952911,310.812531 396.035217,311.093842 396.913788,310.788605 
	C400.601044,309.507721 402.736908,306.971893 401.840729,302.923401 
	C401.068115,299.433014 398.483459,297.256500 395.006378,297.387939 
	C391.182556,297.532562 389.091858,300.624146 389.393707,304.016632 
	C389.599243,306.326447 391.840607,308.455170 393.964294,310.801025 
M799.943909,444.763489 
	C799.137085,448.034088 799.632202,451.327850 802.863586,452.475006 
	C804.856934,453.182648 808.028503,452.533356 809.861694,451.295074 
	C813.037415,449.150024 812.881775,444.013000 810.185059,441.678741 
	C807.208313,439.102081 803.486816,439.997498 799.943909,444.763489 
M487.312225,379.108856 
	C491.354584,378.293884 492.938354,375.278259 491.675873,371.968628 
	C491.000366,370.197754 487.746613,368.406097 485.668335,368.419891 
	C482.851044,368.438629 479.905060,370.299988 480.165894,373.940399 
	C480.426788,377.582031 482.763397,379.327271 487.312225,379.108856 
z"/>
<path fill="#EDEBDF" opacity="1.000000" stroke="none" 
	d="
M453.472351,498.481354 
	C478.621216,465.989471 520.683350,456.032562 551.654846,467.915131 
	C547.675659,472.550537 543.834595,476.909760 540.121216,481.375183 
	C532.780640,490.202484 525.754028,499.306244 518.104614,507.854523 
	C514.519653,511.860748 509.441376,514.500122 505.650513,518.358887 
	C497.565674,526.588440 489.592987,534.963989 482.087067,543.719238 
	C464.228119,564.550781 446.545563,585.536987 429.039307,606.665894 
	C420.831635,616.572021 412.360779,626.425720 405.531311,637.262451 
	C398.418945,648.548157 398.439056,661.493408 401.414124,674.420288 
	C405.135590,690.590515 415.005615,701.966064 429.610626,708.733765 
	C440.827484,713.931580 452.912842,714.508728 465.228363,711.654175 
	C480.390930,708.139709 489.807312,697.192627 499.351898,686.417175 
	C512.717285,671.328308 525.804260,655.991455 538.922546,640.685486 
	C550.785217,626.844604 562.733215,613.067749 574.222778,598.920776 
	C578.562927,593.576782 581.287964,587.141663 582.268799,580.076965 
	C582.602356,577.674377 583.540466,575.010742 585.057800,573.172607 
	C596.024414,559.887512 607.181946,546.759094 618.374268,533.662476 
	C619.416626,532.442688 621.445251,530.786560 622.439087,531.109375 
	C623.870117,531.574097 625.228516,533.498657 625.821655,535.095886 
	C628.573792,542.506592 632.447571,549.865417 633.293518,557.532532 
	C634.506897,568.529663 634.515686,579.926697 633.006836,590.872925 
	C631.793030,599.678223 628.604431,608.624023 624.395264,616.492920 
	C619.746948,625.182678 613.451782,633.159607 606.977783,640.675110 
	C581.280457,670.506409 555.260193,700.059937 529.303406,729.667236 
	C517.037476,743.658203 502.005890,753.341553 484.346619,759.429443 
	C471.915955,763.714905 459.340210,765.395386 446.342926,764.915466 
	C426.373535,764.178101 408.368439,757.449036 391.952118,746.429260 
	C375.732269,735.541321 364.209442,720.477844 356.697723,702.693298 
	C353.250397,694.531494 352.047089,685.414795 349.911591,676.710144 
	C349.250977,674.017273 348.540924,671.270569 348.415009,668.522705 
	C347.049805,638.727783 356.362122,612.774231 375.821198,590.089844 
	C401.713318,559.906128 427.134705,529.318665 452.766724,498.911713 
	C452.858215,498.803192 453.073761,498.799286 453.472351,498.481354 
z"/>
<path fill="#EEEBDF" opacity="1.000000" stroke="none" 
	d="
M747.241211,386.254150 
	C766.423462,363.699554 785.198364,341.263000 804.355591,319.157806 
	C814.547546,307.397522 820.424561,294.034271 819.658508,278.589661 
	C818.835022,261.984863 811.240906,248.660706 797.597412,238.624893 
	C785.942505,230.051910 772.958984,227.459198 759.197449,229.396790 
	C744.865906,231.414673 733.295044,238.833130 723.956604,250.060379 
	C699.235657,279.781525 674.358459,309.374023 649.354309,338.857239 
	C644.005676,345.164001 642.072144,352.650726 639.958191,360.223877 
	C639.486816,361.912415 639.013000,363.803101 637.930359,365.085876 
	C629.806763,374.711182 621.536499,384.212952 613.282288,393.727448 
	C612.875061,394.196869 612.189758,394.425049 611.846252,394.635468 
	C605.954590,390.468262 600.040771,386.702301 594.668396,382.278839 
	C592.540588,380.526855 590.542786,377.405090 590.316895,374.751190 
	C588.819031,357.150116 591.842041,340.382721 599.149475,324.097717 
	C606.417786,307.899902 618.651001,295.666046 629.741577,282.466034 
	C647.445984,261.394257 665.369751,240.506485 683.036133,219.403046 
	C695.909180,204.025558 710.455933,190.880920 729.657593,184.006851 
	C735.922852,181.763916 742.532654,180.376846 749.077148,179.055267 
	C754.069763,178.047073 759.198914,177.329559 764.282837,177.223160 
	C792.574219,176.631012 817.150635,186.068192 838.040466,205.139236 
	C850.665588,216.665131 859.738342,230.698456 865.384033,246.654282 
	C869.793396,259.116180 871.967896,272.355835 871.346436,285.559570 
	C870.108398,311.862823 859.832947,334.385345 842.099731,354.069519 
	C820.283386,378.286041 799.259766,403.224762 778.193054,428.104950 
	C767.639038,440.569458 756.414490,452.219421 741.806335,459.764801 
	C733.358398,464.128296 724.288513,467.339569 715.336426,470.627808 
	C713.710205,471.225128 710.930237,470.200378 709.315247,469.042542 
	C702.832092,464.394623 696.578552,459.424469 690.280457,454.521576 
	C687.738098,452.542328 687.337952,450.722412 689.814331,447.901093 
	C698.113525,438.445831 706.013794,428.641571 714.210449,419.094238 
	C715.757080,417.292786 718.152405,416.243103 719.833252,414.529785 
	C728.942505,405.244781 737.950134,395.860229 747.241211,386.254150 
z"/>
<path fill="#EDEBDF" opacity="1.000000" stroke="none" 
	d="
M459.727997,301.044800 
	C468.970978,308.133301 478.219788,315.214203 487.455872,322.311646 
	C515.662476,343.986816 543.952881,365.554291 572.043884,387.378418 
	C602.271729,410.862640 632.251343,434.666138 662.450562,458.187439 
	C687.810974,477.939941 713.323975,497.496674 738.785095,517.119690 
	C747.019958,523.466309 755.359558,529.678345 763.534424,536.100708 
	C766.170105,538.171326 767.993469,537.590027 769.682129,535.144104 
	C778.521118,522.341980 787.325378,509.515778 796.208862,496.744659 
	C796.833618,495.846497 797.999939,495.325134 799.186523,494.421326 
	C812.060974,541.357422 824.732849,587.554810 837.638428,634.604492 
	C835.273376,634.604492 833.059143,634.820068 830.899719,634.567627 
	C820.894470,633.398315 810.896606,632.157410 800.910767,630.832031 
	C787.483521,629.049927 774.074280,627.132385 760.648010,625.342468 
	C754.565186,624.531616 748.470337,623.781067 742.362610,623.193359 
	C733.121399,622.304199 723.851685,621.702271 714.618042,620.747253 
	C707.927490,620.055237 701.275635,618.988892 693.078918,617.883484 
	C698.061951,613.178040 702.403992,609.064636 706.760681,604.966858 
	C714.611023,597.583008 722.389709,590.119934 730.369629,582.878662 
	C733.123352,580.379822 733.029175,578.805664 730.383911,576.190857 
	C715.871399,561.845093 701.584473,547.271484 687.154419,532.841797 
	C643.481262,489.169586 599.820312,445.485077 556.071716,401.888458 
	C525.904114,371.825562 495.610229,341.889343 465.337708,311.931976 
	C462.407867,309.032654 459.230286,306.383667 456.219971,302.982971 
	C457.424133,301.913208 458.576080,301.479004 459.727997,301.044800 
z"/>
<path fill="#EAE8DD" opacity="1.000000" stroke="none" 
	d="
M799.992188,1061.864868 
	C799.988098,1064.339844 799.988098,1066.333496 799.988098,1069.039917 
	C787.437500,1069.039917 775.004517,1069.039917 762.370178,1069.039917 
	C762.370178,1029.556885 762.369751,990.746155 762.370605,951.935486 
	C762.370728,946.437561 762.481506,940.936951 762.339966,935.442749 
	C762.257446,932.238037 763.453918,930.962463 766.728149,931.025513 
	C774.388977,931.172974 782.063538,930.861328 789.712830,931.190979 
	C791.791565,931.280518 794.418701,932.466919 795.747559,934.036133 
	C812.561768,953.890381 829.197632,973.895630 845.843811,993.891785 
	C848.905090,997.569153 851.809509,1001.377136 855.833862,1006.443665 
	C856.022766,1003.347046 856.220825,1001.554749 856.227783,999.761597 
	C856.308777,978.936279 856.475403,958.110046 856.334778,937.286072 
	C856.302490,932.499390 857.768494,930.809021 862.664307,931.015930 
	C871.145508,931.374390 879.664124,931.350037 888.146118,930.991394 
	C892.812256,930.794128 894.037048,932.414307 894.020203,936.919006 
	C893.870056,977.070007 893.928711,1017.221863 893.925842,1057.373413 
	C893.925598,1061.034668 893.925842,1064.696045 893.925842,1068.912964 
	C892.130371,1069.313110 890.285095,1070.020020 888.416626,1070.088013 
	C881.092346,1070.355103 873.751526,1070.673340 866.437317,1070.408203 
	C864.215271,1070.327637 861.390564,1068.985718 859.974426,1067.280884 
	C842.552124,1046.306274 825.344727,1025.153320 808.068237,1004.057556 
	C805.945251,1001.465271 803.743225,998.937622 801.577820,996.380005 
	C801.050659,996.532776 800.523499,996.685486 799.996338,996.838257 
	C799.996338,1018.353333 799.996338,1039.868408 799.992188,1061.864868 
z"/>
<path fill="#ECEADE" opacity="1.000000" stroke="none" 
	d="
M404.606812,1069.527222 
	C397.531586,1069.535645 390.914825,1069.535645 384.221985,1069.535645 
	C384.221985,1023.072815 384.221985,977.462585 384.221985,931.448730 
	C396.658966,931.448730 408.899048,931.448730 421.803467,931.448730 
	C421.803467,948.345215 421.803467,965.387939 421.803467,982.851685 
	C440.321228,982.851685 458.182800,982.851685 476.505066,982.851685 
	C476.505066,970.119873 476.511871,957.502747 476.503296,944.885559 
	C476.493896,931.076538 476.487671,931.074585 490.191833,931.062073 
	C496.689392,931.056152 503.202515,931.332764 509.679260,930.964905 
	C514.229431,930.706665 515.524475,932.657776 515.488953,936.746887 
	C515.393494,947.741760 515.464783,958.738037 515.452332,969.733765 
	C515.416626,1001.221741 515.298950,1032.709961 515.423340,1064.197388 
	C515.439026,1068.167603 514.355896,1069.439453 510.386963,1069.345337 
	C500.729584,1069.116577 491.060120,1069.160400 481.401184,1069.363647 
	C477.970428,1069.435791 476.820221,1068.562012 476.851929,1064.896362 
	C476.980133,1050.072266 476.744385,1035.244751 476.617645,1020.418823 
	C476.603668,1018.783020 476.427094,1017.148743 476.309296,1015.245117 
	C458.298309,1015.245117 440.546112,1015.245117 422.320862,1015.245117 
	C422.320862,1033.127930 422.320862,1050.853638 422.320862,1069.518799 
	C416.265778,1069.518799 410.665527,1069.518799 404.606812,1069.527222 
z"/>
<path fill="#ECEADE" opacity="1.000000" stroke="none" 
	d="
M962.197266,982.720276 
	C962.196838,984.342834 962.196838,985.502686 962.196838,987.849915 
	C964.313965,986.500244 966.020203,985.844971 967.129639,984.640137 
	C982.680054,967.751587 998.121704,950.762756 1013.691589,933.892334 
	C1014.892029,932.591492 1016.840942,931.222778 1018.465881,931.193176 
	C1030.779785,930.968506 1043.099731,931.070374 1057.014526,931.070374 
	C1055.165161,933.658264 1054.109131,935.500549 1052.713257,937.033508 
	C1037.090576,954.190063 1021.467712,971.347168 1005.698364,988.368286 
	C1003.352295,990.900635 1003.321045,992.521240 1005.419861,995.256042 
	C1023.619385,1018.970825 1041.660889,1042.806885 1059.732300,1066.619751 
	C1060.105591,1067.111572 1060.275269,1067.758057 1060.833984,1068.970459 
	C1058.920532,1069.309570 1057.379150,1069.801270 1055.831543,1069.822266 
	C1044.840942,1069.970825 1033.848389,1069.969238 1022.858276,1070.136963 
	C1019.199097,1070.192627 1016.529785,1069.065308 1014.240234,1065.966309 
	C1003.566467,1051.518677 992.685974,1037.223633 981.855835,1022.891785 
	C977.974060,1017.754883 977.938171,1017.772217 973.522888,1022.339294 
	C970.703857,1025.255127 968.060852,1028.364868 965.045044,1031.058838 
	C962.796570,1033.067261 961.963989,1035.187012 962.016907,1038.190063 
	C962.195496,1048.316406 962.084839,1058.447998 962.084839,1069.229614 
	C950.439819,1069.229614 939.005005,1069.316406 927.577881,1069.060181 
	C926.693237,1069.040405 925.168701,1066.639526 925.118225,1065.301147 
	C924.760498,1055.815796 924.602234,1046.319214 924.581116,1036.825806 
	C924.507690,1003.845093 924.510681,970.864258 924.497192,937.883484 
	C924.494446,931.210754 924.640137,931.084595 931.150818,931.082886 
	C941.271973,931.080261 951.393127,931.082214 962.197754,931.082214 
	C962.197754,948.389893 962.197754,965.323730 962.197266,982.720276 
z"/>
<path fill="#ECEADE" opacity="1.000000" stroke="none" 
	d="
M641.998413,939.021484 
	C649.274902,939.544189 654.005798,944.612610 657.992371,949.539429 
	C669.840393,964.181763 672.556091,980.631226 666.578308,998.779236 
	C662.893372,1009.966370 656.079163,1017.899231 645.828186,1023.164001 
	C642.983887,1024.624756 643.012573,1026.704834 644.494385,1028.854370 
	C653.547241,1041.987671 662.698608,1055.053345 672.450439,1069.050537 
	C670.346130,1069.631714 668.660461,1070.484009 666.966003,1070.502075 
	C656.477234,1070.613647 645.981201,1070.705566 635.501099,1070.374512 
	C633.533813,1070.312378 630.964172,1068.779297 629.801331,1067.129395 
	C622.366333,1056.579346 615.275208,1045.787720 607.980774,1035.137207 
	C607.227112,1034.036743 605.905762,1032.617065 604.804565,1032.578369 
	C598.048645,1032.341553 591.280273,1032.459717 583.983704,1032.459717 
	C583.983704,1043.437866 584.026062,1054.056152 583.934326,1064.673340 
	C583.921753,1066.131226 583.242615,1067.583252 582.428467,1068.521851 
	C581.984802,1056.342407 581.984802,1044.679199 581.984802,1033.015869 
	C581.407593,1033.004761 580.830383,1032.993530 580.253174,1032.982300 
	C580.166443,1034.505249 580.009949,1036.028076 580.004578,1037.551270 
	C579.976257,1045.550659 580.005554,1053.550171 579.973938,1061.549438 
	C579.960144,1065.056030 578.741394,1067.291138 574.313293,1066.418457 
	C574.993774,1062.796509 575.368774,1059.072388 570.442566,1059.211426 
	C564.658020,1059.374634 559.573914,1057.711914 554.278198,1055.558960 
	C551.023010,1054.235474 549.912292,1053.115967 549.943542,1049.753418 
	C550.086243,1034.422607 549.883667,1019.087830 550.109314,1003.758972 
	C550.154907,1000.666199 551.618896,997.611877 552.217163,994.499146 
	C552.400391,993.545898 551.942627,992.439026 551.664551,991.434021 
	C551.157227,989.600647 550.126465,987.800903 550.084167,985.969360 
	C549.903442,978.140747 550.020630,970.305603 549.987427,962.472961 
	C549.981018,960.957886 549.787842,959.443604 549.680847,957.928955 
	C549.102539,957.961975 548.524231,957.994995 547.945923,958.028015 
	C547.945923,974.376892 547.945923,990.725708 547.600586,1006.904907 
	C546.925964,1005.510620 546.313599,1004.287048 546.309570,1003.061462 
	C546.237183,981.123718 546.310242,959.185242 546.155945,937.248291 
	C546.129028,933.418030 547.841370,932.652344 550.945251,933.471252 
	C547.427795,939.230042 547.419739,945.010437 548.955933,950.998047 
	C549.581665,950.391968 549.901672,949.713013 549.959351,949.012329 
	C550.784546,938.983337 550.804260,939.109070 561.083740,936.805664 
	C562.880127,936.403076 564.325562,934.433838 566.403137,933.153320 
	C571.939758,933.141663 577.006348,933.164978 582.200806,933.526794 
	C588.127686,935.540527 593.858459,937.548401 599.753174,938.756836 
	C602.904602,939.402832 606.353821,938.830383 609.640625,938.515259 
	C612.894775,938.203308 616.182007,936.836182 619.333435,937.149902 
	C625.622681,937.775818 631.813721,939.339111 638.082581,940.261414 
	C639.300720,940.440613 640.688721,939.464661 641.998413,939.021484 
M623.566895,965.884766 
	C621.875793,964.948120 620.247864,963.351318 618.483215,963.182251 
	C607.204529,962.101746 595.895752,961.335205 584.289185,960.441711 
	C584.289185,975.379395 584.289185,989.035767 584.289185,1003.640564 
	C595.381409,1002.767273 605.938354,1002.322449 616.384644,1001.002441 
	C626.337036,999.744934 630.054077,992.007935 631.221191,983.368774 
	C632.111633,976.777832 629.628296,970.759216 623.566895,965.884766 
M579.995117,969.663208 
	C579.995117,977.776611 579.995117,985.889954 579.995117,994.003357 
	C580.452820,993.983154 580.910583,993.962952 581.368286,993.942688 
	C581.368286,983.640320 581.368286,973.337891 581.368286,963.035461 
	C580.910583,963.034546 580.452881,963.033691 579.995178,963.032776 
	C579.995178,964.929871 579.995178,966.827026 579.995117,969.663208 
z"/>
<path fill="#EAE8DD" opacity="1.000000" stroke="none" 
	d="
M255.252411,994.797119 
	C241.893265,971.321533 251.972061,944.462158 276.822388,934.720093 
	C293.409058,928.217651 310.122101,927.956604 327.352325,930.527649 
	C336.785187,931.935120 345.637970,934.631531 354.286499,938.607422 
	C357.777466,940.212158 358.249512,941.815735 357.021790,944.912964 
	C353.879669,952.839539 350.802551,960.791992 347.648773,968.863831 
	C333.170166,961.652527 318.328857,957.612000 302.486145,959.176819 
	C298.328979,959.587341 293.525787,960.942139 290.468994,963.557617 
	C282.384460,970.474976 286.065033,977.543518 293.955811,980.637634 
	C301.940002,983.768311 310.732147,984.766785 319.012177,987.230896 
	C332.355804,991.201843 346.820709,993.248169 356.348145,1004.944458 
	C359.570251,1008.899963 362.862335,1013.808960 363.545990,1018.646301 
	C366.462799,1039.285278 360.832092,1054.270264 340.171875,1064.995239 
	C324.567810,1073.095459 307.570251,1074.466919 290.586517,1072.403320 
	C277.068542,1070.760986 263.677826,1067.483398 251.477585,1060.768921 
	C247.867218,1058.781982 247.061707,1056.585815 248.884171,1052.554565 
	C251.933228,1045.810303 254.199799,1038.712036 257.291046,1030.436768 
	C260.411285,1031.786499 263.766357,1033.472900 267.280304,1034.707031 
	C273.803284,1036.997925 280.289856,1039.711182 287.030396,1040.978516 
	C294.592651,1042.400391 302.412689,1042.734985 310.134155,1042.898193 
	C313.624176,1042.971924 317.310181,1041.901489 320.613617,1040.603027 
	C324.683411,1039.003418 326.659363,1035.742188 326.482422,1031.045532 
	C326.271790,1025.455322 322.404144,1022.675537 318.248962,1021.249329 
	C310.422638,1018.562866 302.227570,1016.959534 294.204315,1014.835999 
	C280.627106,1011.242249 266.808990,1008.124084 256.810944,997.022827 
	C256.291351,996.445984 255.991760,995.670959 255.252411,994.797119 
z"/>
<path fill="#EDEBDF" opacity="1.000000" stroke="none" 
	d="
M866.667847,496.999573 
	C866.671814,478.188354 866.716431,459.877075 866.645264,441.566223 
	C866.628052,437.138397 868.047607,435.117188 872.982117,435.145203 
	C902.612488,435.313232 932.244873,435.259949 961.875427,435.084930 
	C966.222351,435.059296 968.042908,435.966278 967.999695,440.839447 
	C967.730591,471.134827 967.710022,501.433167 967.798523,531.729980 
	C967.810242,535.754333 966.805908,537.214783 962.545837,537.194641 
	C932.082825,537.050659 901.618469,537.095276 871.155090,537.222717 
	C867.513977,537.237976 866.599365,535.768494 866.632202,532.456665 
	C866.747803,520.805359 866.670288,509.152130 866.667847,496.999573 
z"/>
<path fill="#EEEBDF" opacity="1.000000" stroke="none" 
	d="
M579.756470,546.736633 
	C569.729431,558.793579 559.805237,570.468262 550.161072,582.369751 
	C542.113220,592.301331 531.678833,596.299683 519.770569,592.655701 
	C502.288391,587.306091 496.233398,566.104126 506.815369,553.055603 
	C524.881653,530.778137 543.693848,509.106110 562.153259,487.146606 
	C568.922119,479.094238 575.593567,470.959625 582.277161,462.835999 
	C584.037292,460.696625 585.636658,460.039642 587.894531,462.366821 
	C598.967590,473.779480 610.130737,485.104736 621.596558,496.802063 
	C607.929077,513.108154 593.954773,529.780396 579.756470,546.736633 
z"/>
<path fill="#E9E7DC" opacity="1.000000" stroke="none" 
	d="
M697.773804,1069.287354 
	C694.229553,1069.710327 692.996338,1068.658691 692.989563,1065.195068 
	C692.906006,1022.390930 692.705566,979.586731 692.402588,936.783508 
	C692.372620,932.547607 693.490417,930.842651 698.078003,931.006165 
	C707.559326,931.344116 717.063660,931.187927 726.554810,931.020935 
	C730.163269,930.957458 731.663330,932.265991 731.658142,935.921997 
	C731.611633,968.567444 731.650940,1001.213074 731.662354,1033.858643 
	C731.666321,1045.343872 731.662964,1056.829102 731.662964,1069.279785 
	C720.382385,1069.279785 709.283875,1069.279785 697.773804,1069.287354 
z"/>
<path fill="#ECEADE" opacity="1.000000" stroke="none" 
	d="
M694.431580,410.500427 
	C686.302673,420.178741 678.410217,429.565674 670.355713,439.145416 
	C656.602722,428.612183 643.376709,418.482574 629.427551,407.799133 
	C634.915710,401.245605 640.346191,394.824402 645.706787,388.345459 
	C654.445496,377.783600 662.868286,366.946228 671.918091,356.659485 
	C683.788757,343.166473 707.280334,347.686920 713.993225,365.389343 
	C718.614258,377.575043 715.031311,387.604736 706.736267,396.691772 
	C702.664307,401.152588 698.687805,405.700562 694.431580,410.500427 
z"/>
<path fill="#272933" opacity="1.000000" stroke="none" 
	d="
M571.926147,218.990326 
	C579.613831,224.154114 585.089600,230.611511 587.908752,239.178604 
	C590.657104,247.530350 590.774109,255.801361 589.354614,264.579498 
	C587.422119,276.529846 581.010376,284.552765 570.875122,289.998383 
	C558.306885,296.751160 533.613831,296.304810 519.991699,283.917664 
	C508.578430,273.539124 507.824036,261.301147 509.708313,248.064529 
	C510.553619,242.126495 513.045105,236.258682 515.659302,230.773453 
	C520.031738,221.598907 528.620972,218.177719 537.845154,215.434204 
	C549.712830,211.904449 560.986755,211.312302 571.926147,218.990326 
M567.461182,225.910156 
	C565.116638,224.941635 562.812927,223.278687 560.419678,223.137848 
	C553.854858,222.751541 547.195923,222.485489 540.685486,223.194122 
	C536.591980,223.639679 532.037659,225.072464 528.840881,227.548325 
	C519.562012,234.734833 514.082031,256.359436 517.999573,267.433899 
	C521.326355,276.838104 533.828796,284.828522 543.651978,283.969666 
	C548.047424,283.585358 552.581299,282.767670 556.853455,283.429810 
	C564.585266,284.628204 570.358765,281.086182 574.979187,276.148773 
	C578.837280,272.025940 583.167603,267.314697 581.070618,260.366730 
	C580.272461,257.722137 579.731140,254.691895 580.189331,252.029556 
	C582.173218,240.500977 576.629333,232.773132 567.461182,225.910156 
z"/>
<path fill="#272933" opacity="1.000000" stroke="none" 
	d="
M795.578491,696.325806 
	C789.873840,688.012573 789.791199,676.882385 796.710205,668.861084 
	C801.681030,663.098267 811.723999,657.914978 822.409241,662.644043 
	C826.946777,664.652161 831.237793,667.605408 834.961487,670.897522 
	C836.779053,672.504517 837.477478,675.803223 837.902222,678.460876 
	C838.552673,682.531494 839.064758,686.759399 838.687683,690.832825 
	C837.671570,701.809937 822.660156,712.505005 812.552979,708.537537 
	C806.358704,706.105957 801.331055,700.702209 795.578491,696.325806 
M826.298096,700.049072 
	C832.355835,695.308838 835.025635,689.390259 834.122192,681.470276 
	C833.292847,674.199524 824.678955,665.691345 817.392883,664.890808 
	C808.323975,663.894470 803.283569,668.945862 799.065552,675.593872 
	C796.273926,679.993958 797.526855,692.638000 801.496460,695.221741 
	C808.749939,699.942932 815.868774,706.852783 826.298096,700.049072 
z"/>
<path fill="#F3F2E6" opacity="1.000000" stroke="none" 
	d="
M547.945923,1007.074585 
	C547.945923,990.725708 547.945923,974.376892 547.945923,958.028015 
	C548.524231,957.994995 549.102539,957.961975 549.680847,957.928955 
	C549.787842,959.443604 549.981018,960.957886 549.987427,962.472961 
	C550.020630,970.305603 549.903442,978.140747 550.084167,985.969360 
	C550.126465,987.800903 551.157227,989.600647 551.664551,991.434021 
	C551.942627,992.439026 552.400391,993.545898 552.217163,994.499146 
	C551.618896,997.611877 550.154907,1000.666199 550.109314,1003.758972 
	C549.883667,1019.087830 550.086243,1034.422607 549.943542,1049.753418 
	C549.912292,1053.115967 551.023010,1054.235474 554.278198,1055.558960 
	C559.573914,1057.711914 564.658020,1059.374634 570.442566,1059.211426 
	C575.368774,1059.072388 574.993774,1062.796509 574.313293,1066.418457 
	C578.741394,1067.291138 579.960144,1065.056030 579.973938,1061.549438 
	C580.005554,1053.550171 579.976257,1045.550659 580.004578,1037.551270 
	C580.009949,1036.028076 580.166443,1034.505249 580.253174,1032.982300 
	C580.830383,1032.993530 581.407593,1033.004761 581.984802,1033.015869 
	C581.984802,1044.679199 581.984802,1056.342407 581.990662,1068.470093 
	C570.286804,1069.027100 558.577087,1069.119629 546.615601,1068.615723 
	C546.886353,1065.823975 547.846741,1063.632080 547.862183,1061.433472 
	C547.989258,1043.314575 547.940979,1025.194336 547.945923,1007.074585 
z"/>
<path fill="#D1D0C6" opacity="1.000000" stroke="none" 
	d="
M547.600586,1006.904907 
	C547.940979,1025.194336 547.989258,1043.314575 547.862183,1061.433472 
	C547.846741,1063.632080 546.886353,1065.823975 546.222229,1068.350830 
	C545.888000,1065.071655 545.549438,1061.461670 545.525208,1057.849731 
	C545.260010,1018.353271 545.044006,978.856628 544.814575,939.359985 
	C544.807800,938.193481 544.826233,937.026001 544.787048,935.860596 
	C544.671570,932.428772 545.911804,930.812683 549.745056,930.844177 
	C571.243469,931.020874 592.745850,930.816956 614.241943,931.107483 
	C619.834290,931.183044 625.422729,932.481079 630.978210,933.422913 
	C631.911072,933.581177 632.665894,934.789978 633.356201,935.792847 
	C627.248779,935.083862 621.312683,933.478882 615.322266,933.240540 
	C604.255981,932.800232 593.157837,933.161133 582.072937,933.188232 
	C577.006348,933.164978 571.939758,933.141663 565.945068,933.119263 
	C560.353577,933.119751 555.690063,933.119385 551.026611,933.119080 
	C547.841370,932.652344 546.129028,933.418030 546.155945,937.248291 
	C546.310242,959.185242 546.237183,981.123718 546.309570,1003.061462 
	C546.313599,1004.287048 546.925964,1005.510620 547.600586,1006.904907 
z"/>
<path fill="#E1DFD6" opacity="1.000000" stroke="none" 
	d="
M424.412476,420.947266 
	C432.721954,420.880341 437.464539,424.294525 437.906128,430.320953 
	C438.328522,436.085388 434.360382,440.591156 427.725372,441.881073 
	C423.381317,442.725616 417.498505,438.713562 416.361786,433.828674 
	C415.283813,429.196259 416.758820,423.061920 424.412476,420.947266 
z"/>
<path fill="#E1DFD6" opacity="1.000000" stroke="none" 
	d="
M521.918579,421.924988 
	C526.561829,417.294220 530.971924,416.852539 534.677124,420.280396 
	C538.490601,423.808411 538.944458,428.090210 535.914246,431.951874 
	C533.559021,434.953369 527.276672,436.318909 524.481506,434.119568 
	C520.143738,430.706390 518.739319,425.736908 521.918579,421.924988 
z"/>
<path fill="#E1DFD6" opacity="1.000000" stroke="none" 
	d="
M403.650085,241.295944 
	C398.323181,241.072174 397.213806,236.917450 397.082062,233.549454 
	C396.970612,230.700729 398.579498,227.442596 402.572723,226.683716 
	C406.283356,225.978531 409.765778,226.528549 411.366821,229.819748 
	C413.047668,233.275040 412.738068,237.408401 409.546387,240.158203 
	C408.287659,241.242615 405.874817,240.987427 403.650085,241.295944 
z"/>
<path fill="#F3F2E6" opacity="1.000000" stroke="none" 
	d="
M582.200806,933.526733 
	C593.157837,933.161133 604.255981,932.800232 615.322266,933.240540 
	C621.312683,933.478882 627.248779,935.083862 633.630005,936.023071 
	C636.493042,936.863770 638.935425,937.753723 641.688110,938.832520 
	C640.688721,939.464661 639.300720,940.440613 638.082581,940.261414 
	C631.813721,939.339111 625.622681,937.775818 619.333435,937.149902 
	C616.182007,936.836182 612.894775,938.203308 609.640625,938.515259 
	C606.353821,938.830383 602.904602,939.402832 599.753174,938.756836 
	C593.858459,937.548401 588.127686,935.540527 582.200806,933.526733 
z"/>
<path fill="#E1DFD6" opacity="1.000000" stroke="none" 
	d="
M657.798340,552.421753 
	C659.151611,547.562256 661.920227,545.875488 666.873413,546.944702 
	C670.963440,547.827576 672.293945,550.891113 671.925720,554.698242 
	C671.541321,558.671875 669.294861,561.082153 665.143311,560.979187 
	C660.859558,560.872803 657.913818,559.019897 657.793945,554.236206 
	C657.781494,553.739929 657.784241,553.243225 657.798340,552.421753 
z"/>
<path fill="#E1DFD6" opacity="1.000000" stroke="none" 
	d="
M561.263184,338.766388 
	C557.583252,339.288361 554.120239,339.702484 552.108887,336.371094 
	C550.089172,333.025909 550.392090,329.776855 553.589539,326.977325 
	C556.851379,324.121429 559.904602,324.723572 562.854919,327.220367 
	C565.401306,329.375336 565.347046,334.290314 562.921570,337.217468 
	C562.511963,337.711792 562.078674,338.186584 561.263184,338.766388 
z"/>
<path fill="#E1DFD6" opacity="1.000000" stroke="none" 
	d="
M745.144653,490.611938 
	C742.428589,489.280731 739.124817,488.400269 739.573059,485.048859 
	C739.943298,482.280365 740.818298,478.814392 742.755432,477.210480 
	C745.281189,475.119171 751.204590,477.375366 751.715820,480.122711 
	C752.353821,483.551178 753.327026,487.494049 748.573425,489.259094 
	C747.530396,489.646393 746.536743,490.166748 745.144653,490.611938 
z"/>
<path fill="#D1D0C6" opacity="1.000000" stroke="none" 
	d="
M667.106934,671.019775 
	C668.876770,665.922180 672.917786,665.680115 676.150146,667.415222 
	C678.055847,668.438171 679.689148,672.345337 679.349060,674.645508 
	C678.767761,678.577637 675.225464,679.922424 671.315979,679.052795 
	C667.103394,678.115662 666.093567,675.159058 667.106934,671.019775 
z"/>
<path fill="#D1D0C6" opacity="1.000000" stroke="none" 
	d="
M393.567993,310.732941 
	C391.840607,308.455170 389.599243,306.326447 389.393707,304.016632 
	C389.091858,300.624146 391.182556,297.532562 395.006378,297.387939 
	C398.483459,297.256500 401.068115,299.433014 401.840729,302.923401 
	C402.736908,306.971893 400.601044,309.507721 396.913788,310.788605 
	C396.035217,311.093842 394.952911,310.812531 393.567993,310.732941 
z"/>
<path fill="#D1D0C6" opacity="1.000000" stroke="none" 
	d="
M799.990479,444.441956 
	C803.486816,439.997498 807.208313,439.102081 810.185059,441.678741 
	C812.881775,444.013000 813.037415,449.150024 809.861694,451.295074 
	C808.028503,452.533356 804.856934,453.182648 802.863586,452.475006 
	C799.632202,451.327850 799.137085,448.034088 799.990479,444.441956 
z"/>
<path fill="#D1D0C6" opacity="1.000000" stroke="none" 
	d="
M486.882385,379.119751 
	C482.763397,379.327271 480.426788,377.582031 480.165894,373.940399 
	C479.905060,370.299988 482.851044,368.438629 485.668335,368.419891 
	C487.746613,368.406097 491.000366,370.197754 491.675873,371.968628 
	C492.938354,375.278259 491.354584,378.293884 486.882385,379.119751 
z"/>
<path fill="#D1D0C6" opacity="1.000000" stroke="none" 
	d="
M459.739716,300.698883 
	C458.576080,301.479004 457.424133,301.913208 456.146362,302.650452 
	C449.812561,297.158325 443.604584,291.363190 437.971344,286.104523 
	C446.665924,287.716370 452.336914,295.360840 459.739716,300.698883 
z"/>
<path fill="#222431" opacity="1.000000" stroke="none" 
	d="
M623.747009,966.233887 
	C629.628296,970.759216 632.111633,976.777832 631.221191,983.368774 
	C630.054077,992.007935 626.337036,999.744934 616.384644,1001.002441 
	C605.938354,1002.322449 595.381409,1002.767273 584.289185,1003.640564 
	C584.289185,989.035767 584.289185,975.379395 584.289185,960.441711 
	C595.895752,961.335205 607.204529,962.101746 618.483215,963.182251 
	C620.247864,963.351318 621.875793,964.948120 623.747009,966.233887 
z"/>
<path fill="#F3F2E6" opacity="1.000000" stroke="none" 
	d="
M550.945251,933.471252 
	C555.690063,933.119385 560.353577,933.119751 565.475098,933.154175 
	C564.325562,934.433838 562.880127,936.403076 561.083740,936.805664 
	C550.804260,939.109070 550.784546,938.983337 549.959351,949.012329 
	C549.901672,949.713013 549.581665,950.391968 548.955933,950.998047 
	C547.419739,945.010437 547.427795,939.230042 550.945251,933.471252 
z"/>
<path fill="#F3F2E6" opacity="1.000000" stroke="none" 
	d="
M579.995117,969.193726 
	C579.995178,966.827026 579.995178,964.929871 579.995178,963.032776 
	C580.452881,963.033691 580.910583,963.034546 581.368286,963.035461 
	C581.368286,973.337891 581.368286,983.640320 581.368286,993.942688 
	C580.910583,993.962952 580.452820,993.983154 579.995117,994.003357 
	C579.995117,985.889954 579.995117,977.776611 579.995117,969.193726 
z"/>
<path fill="#363741" opacity="1.000000" stroke="none" 
	d="
M567.749817,226.145111 
	C576.629333,232.773132 582.173218,240.500977 580.189331,252.029556 
	C579.731140,254.691895 580.272461,257.722137 581.070618,260.366730 
	C583.167603,267.314697 578.837280,272.025940 574.979187,276.148773 
	C570.358765,281.086182 564.585266,284.628204 556.853455,283.429810 
	C552.581299,282.767670 548.047424,283.585358 543.651978,283.969666 
	C533.828796,284.828522 521.326355,276.838104 517.999573,267.433899 
	C514.082031,256.359436 519.562012,234.734833 528.840881,227.548325 
	C532.037659,225.072464 536.591980,223.639679 540.685486,223.194122 
	C547.195923,222.485489 553.854858,222.751541 560.419678,223.137848 
	C562.812927,223.278687 565.116638,224.941635 567.749817,226.145111 
M549.364441,229.196762 
	C548.998962,229.173889 548.633545,229.151001 547.539734,229.194351 
	C545.979248,230.074051 544.471558,231.584320 542.848755,231.720413 
	C536.942993,232.215637 533.333435,235.854340 530.300476,240.266769 
	C527.248230,244.707214 526.845337,250.546265 522.428284,254.469269 
	C521.187439,255.571304 522.828918,257.563751 525.514587,255.990173 
	C525.514587,255.990173 525.979919,256.128754 526.056885,256.876862 
	C526.697510,258.542511 527.643738,260.157898 527.927429,261.882263 
	C529.413025,270.911285 537.874084,275.277527 546.093323,271.790863 
	C546.918274,274.809479 547.743225,277.828064 548.940552,282.209198 
	C550.351746,278.978027 551.217529,276.995789 552.787537,274.901550 
	C554.082520,274.832458 555.385254,274.637207 556.671204,274.715942 
	C562.384949,275.065643 569.612915,270.034821 570.471497,264.607880 
	C570.878723,262.033783 568.873291,259.034821 572.528015,256.720642 
	C573.018799,255.475632 573.509583,254.230621 573.805298,252.275070 
	C573.227844,251.109756 572.346924,250.000381 572.120117,248.770401 
	C569.981323,237.168732 561.440430,230.178680 550.869080,230.577606 
	C550.869080,230.577606 550.755859,230.104904 551.218750,229.717056 
	C551.223633,229.053619 551.228455,228.390198 551.233337,227.726776 
	C550.792542,228.236221 550.351746,228.745651 549.364441,229.196762 
z"/>
<path fill="#3B3C45" opacity="1.000000" stroke="none" 
	d="
M825.979370,700.259888 
	C815.868774,706.852783 808.749939,699.942932 801.496460,695.221741 
	C797.526855,692.638000 796.273926,679.993958 799.065552,675.593872 
	C803.283569,668.945862 808.323975,663.894470 817.392883,664.890808 
	C824.678955,665.691345 833.292847,674.199524 834.122192,681.470276 
	C835.025635,689.390259 832.355835,695.308838 825.979370,700.259888 
M812.006287,677.055847 
	C812.006287,677.055847 812.085693,677.053528 811.399719,677.035095 
	C806.692932,676.820984 809.782104,679.404358 809.533264,681.282959 
	C809.164734,681.249573 808.796204,681.216248 807.645264,681.059753 
	C806.427002,681.679810 805.208740,682.299866 803.468811,683.257935 
	C804.099548,684.408142 804.624634,686.475708 805.377747,686.562439 
	C811.025879,687.212585 812.431152,691.455750 813.816406,695.819702 
	C814.096863,696.703430 814.334167,697.600769 814.801147,699.218689 
	C816.043823,697.540222 817.541931,696.447083 817.600098,695.282104 
	C817.899109,689.288818 821.934021,687.880188 826.752380,686.749634 
	C828.044800,686.446411 828.919739,684.363708 829.763123,682.385986 
	C827.871887,681.679932 825.980713,680.973877 824.089478,680.267761 
	C824.350281,680.027527 824.611084,679.787231 824.871887,679.546936 
	C822.564148,677.375000 820.256470,675.203064 818.006470,673.030273 
	C818.006470,673.030273 817.956543,673.059937 818.043884,672.224426 
	C817.396606,670.572510 816.749329,668.920593 816.102112,667.268616 
	C815.397522,668.505798 814.692932,669.742981 814.002441,670.997131 
	C814.002441,670.997131 813.984131,670.991516 813.268799,671.232300 
	C812.870422,673.187561 812.471985,675.142822 812.006287,677.055847 
z"/>
<path fill="#E1DFD6" opacity="1.000000" stroke="none" 
	d="
M525.979919,256.128754 
	C525.979919,256.128754 525.514587,255.990173 525.265503,255.540253 
	C525.333374,254.423248 525.518066,253.299805 525.988770,253.163437 
	C528.973755,252.298599 532.144958,251.967087 535.016052,250.847549 
	C538.079590,249.652924 542.350159,248.477402 543.491943,246.063065 
	C545.964661,240.834579 546.776794,234.820755 548.268066,229.128113 
	C548.633545,229.151001 548.998962,229.173889 549.674255,229.450775 
	C550.157471,229.999908 550.414734,230.133270 550.755859,230.104904 
	C550.755859,230.104904 550.869080,230.577606 550.911133,231.168823 
	C551.365356,233.499634 551.777527,235.239243 552.137207,237.368683 
	C554.405884,247.870468 557.457214,250.757401 566.356812,251.070007 
	C569.137268,251.800751 571.568848,252.393188 574.000366,252.985611 
	C573.509583,254.230621 573.018799,255.475632 571.845093,256.790314 
	C558.162903,257.809845 552.678528,263.028198 552.083252,275.013519 
	C551.217529,276.995789 550.351746,278.978027 548.940552,282.209198 
	C547.743225,277.828064 546.918274,274.809479 546.032410,271.024292 
	C543.385681,259.830505 537.796021,257.754456 525.979919,256.128754 
z"/>
<path fill="#4B4B53" opacity="1.000000" stroke="none" 
	d="
M547.903931,229.161224 
	C546.776794,234.820755 545.964661,240.834579 543.491943,246.063065 
	C542.350159,248.477402 538.079590,249.652924 535.016052,250.847549 
	C532.144958,251.967087 528.973755,252.298599 525.988770,253.163437 
	C525.518066,253.299805 525.333374,254.423248 525.027710,255.491776 
	C522.828918,257.563751 521.187439,255.571304 522.428284,254.469269 
	C526.845337,250.546265 527.248230,244.707214 530.300476,240.266769 
	C533.333435,235.854340 536.942993,232.215637 542.848755,231.720413 
	C544.471558,231.584320 545.979248,230.074051 547.903931,229.161224 
z"/>
<path fill="#4B4B53" opacity="1.000000" stroke="none" 
	d="
M552.435425,274.957520 
	C552.678528,263.028198 558.162903,257.809845 571.580078,256.923767 
	C568.873291,259.034821 570.878723,262.033783 570.471497,264.607880 
	C569.612915,270.034821 562.384949,275.065643 556.671204,274.715942 
	C555.385254,274.637207 554.082520,274.832458 552.435425,274.957520 
z"/>
<path fill="#3B3C45" opacity="1.000000" stroke="none" 
	d="
M552.189758,236.978851 
	C551.777527,235.239243 551.365356,233.499634 551.035156,231.377792 
	C561.440430,230.178680 569.981323,237.168732 572.120117,248.770401 
	C572.346924,250.000381 573.227844,251.109756 573.902832,252.630341 
	C571.568848,252.393188 569.137268,251.800751 566.276306,250.743805 
	C561.294495,245.845810 556.742126,241.412323 552.189758,236.978851 
z"/>
<path fill="#4B4B53" opacity="1.000000" stroke="none" 
	d="
M526.018433,256.502808 
	C537.796021,257.754456 543.385681,259.830505 545.920166,270.640076 
	C537.874084,275.277527 529.413025,270.911285 527.927429,261.882263 
	C527.643738,260.157898 526.697510,258.542511 526.018433,256.502808 
z"/>
<path fill="#3B3C45" opacity="1.000000" stroke="none" 
	d="
M550.987305,229.910980 
	C550.414734,230.133270 550.157471,229.999908 549.947510,229.479950 
	C550.351746,228.745651 550.792542,228.236221 551.233337,227.726776 
	C551.228455,228.390198 551.223633,229.053619 550.987305,229.910980 
z"/>
<path fill="#E1DFD6" opacity="1.000000" stroke="none" 
	d="
M829.986328,683.097900 
	C828.919739,684.363708 828.044800,686.446411 826.752380,686.749634 
	C821.934021,687.880188 817.899109,689.288818 817.600098,695.282104 
	C817.541931,696.447083 816.043823,697.540222 814.801147,699.218689 
	C814.334167,697.600769 814.096863,696.703430 813.816406,695.819702 
	C812.431152,691.455750 811.025879,687.212585 805.377747,686.562439 
	C804.624634,686.475708 804.099548,684.408142 804.112793,683.117065 
	C805.980347,682.378479 807.204041,681.780701 808.427673,681.182922 
	C808.796204,681.216248 809.164734,681.249573 810.152649,681.134888 
	C811.209961,679.675720 811.647827,678.364624 812.085693,677.053528 
	C812.085693,677.053528 812.006287,677.055847 812.379028,676.927246 
	C813.162598,674.862915 813.573364,672.927185 813.984131,670.991516 
	C813.984131,670.991516 814.002441,670.997131 814.340393,670.906860 
	C815.771057,671.564331 816.863831,672.312134 817.956543,673.059937 
	C817.956543,673.059937 818.006470,673.030273 817.922363,673.438782 
	C817.570129,678.008057 819.217529,681.199158 823.183655,682.531311 
	C825.278320,683.234924 827.707886,682.941223 829.986328,683.097900 
z"/>
<path fill="#4B4B53" opacity="1.000000" stroke="none" 
	d="
M829.874695,682.741943 
	C827.707886,682.941223 825.278320,683.234924 823.183655,682.531311 
	C819.217529,681.199158 817.570129,678.008057 817.893555,673.439209 
	C820.256470,675.203064 822.564148,677.375000 824.871887,679.546936 
	C824.611084,679.787231 824.350281,680.027527 824.089478,680.267761 
	C825.980713,680.973877 827.871887,681.679932 829.874695,682.741943 
z"/>
<path fill="#4B4B53" opacity="1.000000" stroke="none" 
	d="
M818.000244,672.642212 
	C816.863831,672.312134 815.771057,671.564331 814.333374,670.898376 
	C814.692932,669.742981 815.397522,668.505798 816.102112,667.268616 
	C816.749329,668.920593 817.396606,670.572510 818.000244,672.642212 
z"/>
<path fill="#4B4B53" opacity="1.000000" stroke="none" 
	d="
M811.742676,677.044312 
	C811.647827,678.364624 811.209961,679.675720 810.382568,680.970886 
	C809.782104,679.404358 806.692932,676.820984 811.742676,677.044312 
z"/>
<path fill="#4B4B53" opacity="1.000000" stroke="none" 
	d="
M813.626465,671.111938 
	C813.573364,672.927185 813.162598,674.862915 812.412659,676.948364 
	C812.471985,675.142822 812.870422,673.187561 813.626465,671.111938 
z"/>
<path fill="#4B4B53" opacity="1.000000" stroke="none" 
	d="
M808.036499,681.121338 
	C807.204041,681.780701 805.980347,682.378479 804.373596,682.948120 
	C805.208740,682.299866 806.427002,681.679810 808.036499,681.121338 
z"/>
<path fill="#4B4B53" opacity="1.000000" stroke="none" 
	d="
M552.137207,237.368698 
	C556.742126,241.412323 561.294495,245.845810 565.927368,250.605469 
	C557.457214,250.757401 554.405884,247.870468 552.137207,237.368698 
z"/>
</svg>